Coordinates
version=1
nRows=17
nColumns=40
inDegrees=yes

Units are S.I. units (second, meters, Newtons, ...)
Angles are in degrees.

endheader
time	pelvis_tilt	pelvis_list	pelvis_rotation	pelvis_tx	pelvis_ty	pelvis_tz	hip_flexion_r	hip_adduction_r	hip_rotation_r	knee_angle_r	knee_angle_r_beta	ankle_angle_r	subtalar_angle_r	mtp_angle_r	hip_flexion_l	hip_adduction_l	hip_rotation_l	knee_angle_l	knee_angle_l_beta	ankle_angle_l	subtalar_angle_l	mtp_angle_l	lumbar_extension	lumbar_bending	lumbar_rotation	arm_flex_r	arm_add_r	arm_rot_r	elbow_flex_r	pro_sup_r	wrist_flex_r	wrist_dev_r	arm_flex_l	arm_add_l	arm_rot_l	elbow_flex_l	pro_sup_l	wrist_flex_l	wrist_dev_l
     38.77900000	     -7.18841086	     -5.39902428	     -5.36193981	      0.98770875	      0.93157838	      0.45235323	     36.85582762	     -1.67026214	     -6.08706421	     60.72126176	     60.72126176	      1.60419086	    -13.89416995	     -0.50585251	     14.36849307	     -7.58681960	     -9.75748696	     19.71099413	     19.71099413	     13.49575785	    -12.78329930	     -0.62837686	    -13.45451990	      5.43994497	      2.37370203	      3.22478092	    -13.18028027	     -9.69591269	     47.45371804	     46.35464126	      0.00000000	      0.00000000	     11.51160053	    -18.19175735	     -3.60246940	     65.50427580	     47.11313386	      0.00000000	      0.00000000
     38.79050000	     -7.10094086	     -5.45368619	     -5.67665204	      0.98793767	      0.93168845	      0.45221489	     37.22733267	     -1.51684217	     -6.45072049	     57.76288347	     57.76288347	      1.71131008	    -12.68992148	     -0.53447396	     13.33120367	     -7.55634753	    -10.04835621	     19.19235710	     19.19235710	     13.85419804	    -12.69977941	     -0.72497861	    -13.76718949	      5.69951043	      3.08564089	      1.56922617	    -13.46917428	     -9.85813454	     44.97647097	     46.43316982	      0.00000000	      0.00000000	     13.04022027	    -18.01859802	     -4.26804509	     67.62425185	     47.21098642	      0.00000000	      0.00000000
     38.80200000	     -7.13797623	     -5.48498939	     -5.94770892	      0.98823598	      0.93146596	      0.45222561	     37.49147982	     -1.34333187	     -6.85611110	     54.31066534	     54.31066534	      1.48415652	    -11.62386022	     -1.53216704	     12.44774219	     -7.51794052	    -10.33228694	     18.67435103	     18.67435103	     13.98352588	    -12.67956644	     -1.35845780	    -13.83942859	      5.86931764	      2.46685142	      2.53007768	    -12.83406334	    -11.38779561	     37.83699252	     46.73300534	      0.00000000	      0.00000000	     13.04838347	    -18.49975617	     -6.02375564	     71.31640966	     47.42286855	      0.00000000	      0.00000000
     38.81350000	     -7.13200651	     -5.59500044	     -6.17025474	      0.98872061	      0.93121076	      0.45224720	     37.46792868	     -1.12964340	     -7.43803636	     50.48779694	     50.48779694	      1.67891220	    -10.04716818	     -1.44213265	     11.52986724	     -7.54534080	    -10.51914898	     18.21551955	     18.21551955	     14.34705713	    -12.58829875	     -1.46690345	    -14.02481430	      6.21801034	      2.93762567	      0.91788172	    -13.09174273	    -11.46228094	     36.20189301	     46.78141820	      0.00000000	      0.00000000	     14.41307368	    -18.30687923	     -6.63188353	     73.12477493	     47.50635903	      0.00000000	      0.00000000
     38.82500000	     -7.34938002	     -5.31661182	     -6.39588857	      0.98907904	      0.93021956	      0.45241640	     37.68059318	     -1.06044925	     -7.52477321	     46.52476963	     46.52476963	      1.88708674	     -8.95394679	     -1.11072724	     11.07533863	     -7.21944935	    -10.78873212	     18.09151064	     18.09151064	     14.65835418	    -12.64817961	     -1.63739975	    -13.81460864	      6.10917425	      2.77389032	     -0.47454503	    -13.03582260	    -11.48454335	     35.21957892	     46.80920117	      0.00000000	      0.00000000	     15.60665182	    -18.87530657	     -7.11636609	     74.15995545	     47.56678432	      0.00000000	      0.00000000
     38.83650000	     -7.13265334	     -5.65636834	     -6.59063629	      0.99026091	      0.93012526	      0.45266332	     36.80962698	     -0.69747102	     -8.63019496	     41.88303355	     41.88303355	      2.13522632	     -6.47693938	     -1.17811744	      9.70942724	     -7.44909817	    -10.97288922	     17.34541012	     17.34541012	     15.03303072	    -12.35717570	     -1.90977957	    -14.29224925	      6.62826018	      3.92770826	     -1.94372875	    -13.39752769	    -11.55692758	     32.41633663	     46.90917088	      0.00000000	      0.00000000	     16.90150985	    -17.84342618	     -7.69910033	     77.40036784	     47.67570451	      0.00000000	      0.00000000
     38.84800000	     -7.21009794	     -5.50022901	     -6.78054659	      0.99144208	      0.92907944	      0.45309931	     36.27467195	     -0.57405753	     -9.24382669	     37.20972692	     37.20972692	      2.04032469	     -4.57817847	     -2.02410939	      8.82064291	     -7.22502705	    -11.37118991	     16.78435999	     16.78435999	     15.09754054	    -12.12533980	     -2.97897234	    -14.22626214	      6.52953550	      3.17832630	     -1.02161988	    -12.99655205	    -12.03132418	     26.80289352	     47.15283041	      0.00000000	      0.00000000	     16.48770185	    -18.24341033	     -9.70882483	     81.83294557	     47.90672143	      0.00000000	      0.00000000
     38.85950000	     -7.28074714	     -5.50102300	     -6.87275311	      0.99285228	      0.92796791	      0.45364647	     35.49853012	     -0.19913102	     -9.88365854	     32.37027455	     32.37027455	      2.20511941	     -2.82121672	     -1.32232221	      8.02331736	     -7.15820704	    -11.48495555	     16.44993047	     16.44993047	     15.45053175	    -12.08718984	     -3.16206792	    -14.09008834	      6.69046882	      3.16394572	     -2.30207121	    -13.00765650	    -12.05662929	     25.82624662	     47.18127334	      0.00000000	      0.00000000	     17.50301494	    -18.22811003	    -10.15462217	     83.26760782	     47.97149915	      0.00000000	      0.00000000
     38.87100000	     -7.22688576	     -5.42588200	     -6.92993451	      0.99472107	      0.92676737	      0.45425260	     34.46208660	      0.08521124	    -10.65780517	     27.61263501	     27.61263501	      2.40973038	     -0.67102392	     -0.39697960	      7.01401958	     -6.99261337	    -11.67401100	     16.01454727	     16.01454727	     15.84748588	    -11.86349376	     -3.43144629	    -14.07658690	      6.74857227	      3.39848234	     -3.64132876	    -12.99664764	    -12.03131787	     24.79264479	     47.20768676	      0.00000000	      0.00000000	     18.44223469	    -17.97003194	    -10.55436000	     85.24187430	     48.04335588	      0.00000000	      0.00000000
     38.88250000	     -7.09054419	     -5.25857847	     -6.94671976	      0.99698869	      0.92533781	      0.45495838	     33.33974572	      0.27585516	    -11.53682075	     23.22692202	     23.22692202	      2.67966355	      1.62190467	      0.95111792	      5.89917192	     -6.72732233	    -11.90970611	     15.56872644	     15.56872644	     16.27714985	    -11.48238204	     -3.80537073	    -14.12772939	      6.64323453	      3.52505629	     -4.98065259	    -12.94344202	    -11.96643868	     23.88805328	     47.22373756	      0.00000000	      0.00000000	     19.18092257	    -17.73696042	    -10.95012576	     87.50771997	     48.12089914	      0.00000000	      0.00000000
     38.89400000	     -7.02231335	     -5.05813409	     -6.93632080	      0.99948273	      0.92356670	      0.45586958	     32.34262883	      0.49311173	    -12.34295643	     19.32755325	     19.32755325	      2.80984436	      3.58918454	      2.56793661	      4.86859525	     -6.44792670	    -12.10710891	     15.15923084	     15.15923084	     16.74133574	    -11.12524482	     -4.14919044	    -13.97064704	      6.51006200	      3.47325505	     -6.25143199	    -12.79878622	    -11.88078957	     23.34662727	     47.22217386	      0.00000000	      0.00000000	     19.79581030	    -17.64236990	    -11.25027699	     89.46637128	     48.18578589	      0.00000000	      0.00000000
     38.90550000	     -6.93287394	     -4.84932528	     -6.91720909	      1.00219152	      0.92169524	      0.45690376	     31.69895884	      0.57278008	    -13.37521709	     16.75291289	     16.75291289	      4.64077099	      5.87293444	      8.99013631	      3.79136355	     -6.19091418	    -12.46122332	     14.74117605	     14.74117605	     17.23571802	    -10.46704946	     -4.63261165	    -13.90068278	      6.29516302	      2.88035855	     -7.45136768	    -12.80609849	    -10.56174664	     23.65784154	     47.03366862	      0.00000000	      0.00000000	     19.57527623	    -17.70790077	    -12.43034785	     92.68354846	     48.36291034	      0.00000000	      0.00000000
     38.91700000	     -6.93213684	     -4.64234366	     -6.85620292	      1.00509873	      0.91948449	      0.45818926	     31.00078913	      0.79918546	    -14.00563053	     14.21325384	     14.21325384	      4.31915003	      6.92414010	      9.75619947	      2.86159013	     -5.93766850	    -12.53163017	     14.42738310	     14.42738310	     17.77509349	    -10.19477154	     -4.78503973	    -13.56943272	      6.12962981	      2.83997319	     -8.73601992	    -12.61947562	    -10.44974707	     23.40768648	     47.01731059	      0.00000000	      0.00000000	     20.19488904	    -17.63923949	    -12.41316861	     93.86049250	     48.39206472	      0.00000000	      0.00000000
     38.92850000	     -6.80165228	     -4.54993202	     -6.77799372	      1.00828518	      0.91744095	      0.45964502	     30.28320290	      1.05392903	    -14.69649656	     12.47149063	     12.47149063	      3.97054992	      7.88795947	     10.35741461	      1.72933799	     -5.82077431	    -12.68112008	     14.06983349	     14.06983349	     18.41208356	     -9.67252989	     -4.86938075	    -13.43984868	      6.06603884	      2.87788114	    -10.16410248	    -12.49910493	    -10.33607946	     23.53224833	     46.98024780	      0.00000000	      0.00000000	     20.60869758	    -17.44244524	    -12.29618695	     95.37372727	     48.42010936	      0.00000000	      0.00000000
     38.94000000	     -6.77596384	     -4.47875519	     -6.71044156	      1.01151629	      0.91523164	      0.46137828	     29.85577995	      1.29609062	    -15.18773908	     11.54036479	     11.54036479	      3.48981669	      8.34552868	     10.50680107	      0.75736967	     -5.78194031	    -12.85279164	     13.83001029	     13.83001029	     19.06527717	     -9.13022747	     -4.85927785	    -13.14727946	      5.99994262	      2.87346892	    -11.53377005	    -12.32420091	    -10.24378408	     23.89411832	     46.93446417	      0.00000000	      0.00000000	     20.89462665	    -17.33177026	    -12.19532519	     96.76362554	     48.44640951	      0.00000000	      0.00000000
     38.95150000	     -6.68072424	     -4.50150927	     -6.64775058	      1.01482513	      0.91317709	      0.46333666	     29.50340017	      1.56845195	    -15.41898281	     11.34942484	     11.34942484	      2.72800865	      8.30355344	      9.60717858	     -0.22049623	     -5.90456442	    -13.18307997	     13.79158466	     13.79158466	     19.94662359	     -8.25054551	     -4.57813421	    -13.03008084	      6.01062155	      2.95885157	    -13.08835056	    -12.22222008	    -10.10979485	     25.03316836	     46.84340008	      0.00000000	      0.00000000	     20.91282155	    -17.12799507	    -11.93336718	     98.54405554	     48.47501087	      0.00000000	      0.00000000
     38.96300000	     -6.73561533	     -4.61031184	     -6.52674999	      1.01803979	      0.91102755	      0.46545148	     29.49960137	      1.82855804	    -15.54271155	     11.90538655	     11.90538655	      2.12558473	      7.78744654	      8.87973576	     -0.92019166	     -6.14966782	    -13.14900404	     13.94246081	     13.94246081	     20.58972790	     -8.02570486	     -4.51971853	    -12.65564950	      6.19948465	      2.75227330	    -14.04215049	    -12.07461284	    -10.04808580	     25.30352631	     46.81192907	      0.00000000	      0.00000000	     20.89848187	    -17.19959957	    -11.91702095	     98.98876405	     48.48679408	      0.00000000	      0.00000000
